<svg width="300" height="86" viewBox="0 0 300 86" fill="none" xmlns="http://www.w3.org/2000/svg">
<g clip-path="url(#clip0_5_232)">
<path d="M94.5127 56C89.4197 56 84.8172 54.902 80.7054 52.7059C76.6403 50.5098 73.4397 47.496 71.1034 43.6646C68.8139 39.7864 67.6691 35.441 67.6691 30.6283C67.6691 25.8156 68.8139 21.4935 71.1034 17.6621C73.4397 13.7839 76.6403 10.7468 80.7054 8.5507C84.8172 6.35462 89.4197 5.25658 94.5127 5.25658C99.6057 5.25658 104.185 6.35462 108.25 8.5507C112.315 10.7468 115.516 13.7839 117.852 17.6621C120.188 21.4935 121.356 25.8156 121.356 30.6283C121.356 35.441 120.188 39.7864 117.852 43.6646C115.516 47.496 112.315 50.5098 108.25 52.7059C104.185 54.902 99.6057 56 94.5127 56ZM94.5127 46.3279C97.4096 46.3279 100.026 45.6738 102.362 44.3655C104.699 43.0104 106.521 41.1414 107.829 38.7584C109.184 36.3755 109.862 33.6654 109.862 30.6283C109.862 27.5912 109.184 24.8811 107.829 22.4981C106.521 20.1151 104.699 18.2695 102.362 16.9612C100.026 15.6062 97.4096 14.9287 94.5127 14.9287C91.6157 14.9287 88.9991 15.6062 86.6629 16.9612C84.3266 18.2695 82.481 20.1151 81.1259 22.4981C79.8176 24.8811 79.1635 27.5912 79.1635 30.6283C79.1635 33.6654 79.8176 36.3755 81.1259 38.7584C82.481 41.1414 84.3266 43.0104 86.6629 44.3655C88.9991 45.6738 91.6157 46.3279 94.5127 46.3279Z" fill="#CF9B38"/>
<path d="M41.5193 3.15395V55.159H31.0763V50.8135C28.3662 54.0843 24.4413 55.7197 19.3016 55.7197C15.7505 55.7197 12.5264 54.9253 9.62947 53.3367C6.77924 51.748 4.53644 49.4819 2.90106 46.5382C1.26569 43.5945 0.447998 40.1836 0.447998 36.3054C0.447998 32.4272 1.26569 29.0163 2.90106 26.0726C4.53644 23.1289 6.77924 20.8627 9.62947 19.2741C12.5264 17.6854 15.7505 16.8911 19.3016 16.8911C24.1142 16.8911 27.8756 18.4097 30.5857 21.4468V3.15395H41.5193ZM21.1939 46.7484C23.9507 46.7484 26.2402 45.8139 28.0625 43.9449C29.8848 42.0292 30.7959 39.4827 30.7959 36.3054C30.7959 33.1281 29.8848 30.6049 28.0625 28.7359C26.2402 26.8202 23.9507 25.8623 21.1939 25.8623C18.3904 25.8623 16.0775 26.8202 14.2553 28.7359C12.433 30.6049 11.5218 33.1281 11.5218 36.3054C11.5218 39.4827 12.433 42.0292 14.2553 43.9449C16.0775 45.8139 18.3904 46.7484 21.1939 46.7484Z" fill="#363636"/>
<path d="M55.8439 2.59325C57.8064 2.59325 59.4184 3.22404 60.68 4.48562C61.9416 5.70047 62.5723 7.31249 62.5723 9.32166C62.5723 10.2562 62.4555 11.1907 62.2219 12.1252C61.9883 13.0597 61.4977 14.4614 60.7501 16.3304L56.685 26.423H49.7463L52.7601 15.3492C51.592 14.8352 50.6808 14.0642 50.0267 13.0363C49.3725 12.0083 49.0454 10.7701 49.0454 9.32166C49.0454 7.31249 49.6762 5.70047 50.9378 4.48562C52.2461 3.22404 53.8815 2.59325 55.8439 2.59325Z" fill="#363636"/>
<path d="M139.561 22.428C140.87 20.6058 142.622 19.2274 144.818 18.2929C147.061 17.3584 149.631 16.8911 152.528 16.8911V26.9837C151.313 26.8903 150.495 26.8436 150.075 26.8436C146.944 26.8436 144.491 27.7313 142.715 29.5069C140.94 31.2357 140.052 33.8523 140.052 37.3567V55.159H129.118V17.4518H139.561V22.428Z" fill="#363636"/>
<path d="M195.623 36.4456C195.623 36.5857 195.553 37.567 195.413 39.3892H166.887C167.401 41.7255 168.616 43.5711 170.531 44.9262C172.447 46.2812 174.83 46.9587 177.68 46.9587C179.643 46.9587 181.372 46.6783 182.867 46.1176C184.409 45.5102 185.834 44.5757 187.142 43.3141L192.959 49.622C189.408 53.6871 184.222 55.7197 177.4 55.7197C173.148 55.7197 169.387 54.902 166.116 53.2666C162.845 51.5845 160.322 49.2716 158.546 46.3279C156.771 43.3842 155.883 40.0434 155.883 36.3054C155.883 32.6141 156.748 29.2966 158.476 26.3529C160.252 23.3625 162.658 21.0496 165.695 19.4143C168.779 17.7322 172.214 16.8911 175.998 16.8911C179.69 16.8911 183.03 17.6854 186.021 19.2741C189.011 20.8627 191.347 23.1523 193.03 26.1427C194.758 29.0864 195.623 32.5207 195.623 36.4456ZM176.068 25.1615C173.592 25.1615 171.513 25.8623 169.831 27.2641C168.148 28.6658 167.121 30.5816 166.747 33.0113H185.32C184.946 30.6283 183.918 28.7359 182.236 27.3342C180.554 25.8857 178.498 25.1615 176.068 25.1615Z" fill="#363636"/>
<path d="M202.902 3.15395H213.836V55.159H202.902V3.15395Z" fill="#363636"/>
<path d="M223.983 3.15395H234.917V55.159H223.983V3.15395Z" fill="#363636"/>
<path d="M245.064 17.4518H255.998V55.159H245.064V17.4518ZM250.531 12.1952C248.522 12.1952 246.886 11.6112 245.625 10.4431C244.363 9.27493 243.732 7.82645 243.732 6.09762C243.732 4.36879 244.363 2.92032 245.625 1.75219C246.886 0.584064 248.522 0 250.531 0C252.54 0 254.176 0.560702 255.437 1.68211C256.699 2.80351 257.329 4.20526 257.329 5.88736C257.329 7.70964 256.699 9.2282 255.437 10.4431C254.176 11.6112 252.54 12.1952 250.531 12.1952Z" fill="#363636"/>
<path d="M281.354 16.8911C287.195 16.8911 291.68 18.2929 294.811 21.0964C297.942 23.8532 299.507 28.035 299.507 33.6421V55.159H289.274V50.4631C287.218 53.9675 283.387 55.7197 277.78 55.7197C274.883 55.7197 272.36 55.229 270.21 54.2478C268.108 53.2666 266.496 51.9116 265.374 50.1827C264.253 48.4539 263.692 46.4915 263.692 44.2954C263.692 40.791 265 38.0342 267.617 36.025C270.28 34.0159 274.369 33.0113 279.882 33.0113H288.573C288.573 30.6283 287.849 28.806 286.4 27.5444C284.952 26.2361 282.779 25.582 279.882 25.582C277.873 25.582 275.887 25.9091 273.925 26.5632C272.009 27.1706 270.374 28.0117 269.019 29.0864L265.094 21.4468C267.15 19.9983 269.603 18.8769 272.453 18.0826C275.35 17.2883 278.317 16.8911 281.354 16.8911ZM280.513 48.3605C282.382 48.3605 284.041 47.9399 285.489 47.0989C286.938 46.2111 287.966 44.9262 288.573 43.2441V39.3892H281.074C276.588 39.3892 274.345 40.8611 274.345 43.8048C274.345 45.2065 274.883 46.3279 275.957 47.169C277.079 47.9633 278.597 48.3605 280.513 48.3605Z" fill="#363636"/>
<path d="M107.036 84.427V85.8652H96.4287V70.1348H106.714V71.573H98.0144V77.1685H105.771V78.5843H98.0144V84.427H107.036Z" fill="#363636"/>
<path d="M114.899 86C113.785 86 112.713 85.8127 111.685 85.4382C110.67 85.0637 109.885 84.5693 109.327 83.9551L109.949 82.6742C110.492 83.2434 111.213 83.7079 112.113 84.0674C113.013 84.412 113.942 84.5843 114.899 84.5843C116.242 84.5843 117.249 84.3296 117.92 83.8202C118.592 83.2959 118.927 82.6217 118.927 81.7978C118.927 81.1685 118.742 80.6667 118.37 80.2921C118.013 79.9176 117.57 79.633 117.042 79.4382C116.513 79.2285 115.777 79.0037 114.835 78.764C113.706 78.4644 112.806 78.1798 112.135 77.9101C111.463 77.6255 110.885 77.1985 110.399 76.6292C109.927 76.0599 109.692 75.2884 109.692 74.3146C109.692 73.5206 109.892 72.8015 110.292 72.1573C110.692 71.4981 111.306 70.9738 112.135 70.5843C112.963 70.1948 113.992 70 115.22 70C116.077 70 116.913 70.1273 117.727 70.382C118.556 70.6217 119.27 70.9588 119.87 71.3933L119.335 72.7191C118.706 72.2846 118.035 71.9625 117.32 71.7528C116.606 71.5281 115.906 71.4157 115.22 71.4157C113.906 71.4157 112.913 71.6854 112.242 72.2247C111.585 72.7491 111.256 73.4307 111.256 74.2697C111.256 74.8989 111.435 75.4082 111.792 75.7978C112.163 76.1723 112.62 76.4644 113.163 76.6742C113.72 76.8689 114.463 77.0861 115.392 77.3258C116.492 77.6105 117.377 77.8951 118.049 78.1798C118.735 78.4494 119.313 78.8689 119.785 79.4382C120.256 79.9925 120.492 80.7491 120.492 81.7079C120.492 82.5019 120.285 83.2285 119.87 83.8876C119.47 84.5318 118.849 85.0487 118.006 85.4382C117.163 85.8127 116.127 86 114.899 86Z" fill="#363636"/>
<path d="M126.652 71.573H121.38V70.1348H133.509V71.573H128.237V85.8652H126.652V71.573Z" fill="#363636"/>
<path d="M135.201 85.9775C134.887 85.9775 134.615 85.8577 134.387 85.618C134.173 85.3783 134.065 85.0861 134.065 84.7416C134.065 84.397 134.173 84.1124 134.387 83.8876C134.615 83.6479 134.887 83.5281 135.201 83.5281C135.515 83.5281 135.787 83.6479 136.015 83.8876C136.244 84.1124 136.358 84.397 136.358 84.7416C136.358 85.0861 136.244 85.3783 136.015 85.618C135.787 85.8577 135.515 85.9775 135.201 85.9775Z" fill="#363636"/>
<path d="M144.365 79.0787H149.979V80.4719H144.365V79.0787Z" fill="#363636"/>
<path d="M162.141 70.1348V85.8652H160.598V71.573H157.062V70.1348H162.141Z" fill="#363636"/>
<path d="M170.398 70C172.384 70 173.905 70.6891 174.962 72.0674C176.019 73.4307 176.548 75.3633 176.548 77.8652C176.548 79.618 176.262 81.1011 175.691 82.3146C175.119 83.5281 174.319 84.4494 173.291 85.0787C172.262 85.6929 171.062 86 169.691 86C168.205 86 167.019 85.7154 166.134 85.1461L166.755 83.8427C167.469 84.3371 168.441 84.5843 169.669 84.5843C171.326 84.5843 172.626 84.0375 173.569 82.9438C174.512 81.8352 174.984 80.2322 174.984 78.1348C174.984 77.7453 174.962 77.3184 174.919 76.8539C174.548 77.7079 173.955 78.3745 173.141 78.8539C172.326 79.3184 171.391 79.5506 170.334 79.5506C169.348 79.5506 168.469 79.3558 167.698 78.9663C166.941 78.5768 166.348 78.03 165.919 77.3258C165.491 76.6067 165.276 75.7753 165.276 74.8315C165.276 73.8727 165.498 73.0262 165.941 72.2921C166.384 71.5581 166.991 70.9963 167.762 70.6067C168.548 70.2022 169.426 70 170.398 70ZM170.569 78.1798C171.326 78.1798 171.991 78.03 172.562 77.7303C173.148 77.4307 173.605 77.0187 173.934 76.4944C174.262 75.97 174.426 75.3858 174.426 74.7416C174.426 74.1423 174.269 73.588 173.955 73.0787C173.655 72.5693 173.205 72.1573 172.605 71.8427C172.005 71.5281 171.291 71.3708 170.462 71.3708C169.376 71.3708 168.491 71.6854 167.805 72.3146C167.134 72.9288 166.798 73.7528 166.798 74.7865C166.798 75.8202 167.134 76.6442 167.805 77.2584C168.491 77.8727 169.412 78.1798 170.569 78.1798Z" fill="#363636"/>
<path d="M187.377 77.618C188.32 77.9476 189.042 78.4419 189.542 79.1011C190.056 79.7603 190.313 80.5543 190.313 81.4831C190.313 82.397 190.077 83.1985 189.606 83.8876C189.134 84.5618 188.456 85.0861 187.57 85.4607C186.699 85.8202 185.67 86 184.484 86C182.684 86 181.27 85.5955 180.242 84.7865C179.213 83.9775 178.699 82.8764 178.699 81.4831C178.699 80.5393 178.942 79.7453 179.427 79.1011C179.927 78.4419 180.649 77.9476 181.592 77.618C180.82 77.3034 180.234 76.8539 179.834 76.2697C179.434 75.6704 179.234 74.9663 179.234 74.1573C179.234 72.8839 179.706 71.8727 180.649 71.1236C181.606 70.3745 182.884 70 184.484 70C185.542 70 186.463 70.1723 187.249 70.5169C188.049 70.8464 188.67 71.3258 189.113 71.9551C189.556 72.5843 189.777 73.3184 189.777 74.1573C189.777 74.9663 189.57 75.6704 189.156 76.2697C188.742 76.8539 188.149 77.3034 187.377 77.618ZM180.777 74.2022C180.777 75.0712 181.106 75.7603 181.763 76.2697C182.42 76.779 183.327 77.0337 184.484 77.0337C185.642 77.0337 186.549 76.779 187.206 76.2697C187.877 75.7603 188.213 75.0787 188.213 74.2247C188.213 73.3408 187.87 72.6442 187.184 72.1348C186.513 71.6255 185.613 71.3708 184.484 71.3708C183.342 71.3708 182.434 71.6255 181.763 72.1348C181.106 72.6442 180.777 73.3333 180.777 74.2022ZM184.484 84.6292C185.813 84.6292 186.849 84.3446 187.592 83.7753C188.349 83.206 188.727 82.4345 188.727 81.4607C188.727 80.4869 188.349 79.7228 187.592 79.1685C186.849 78.5993 185.813 78.3146 184.484 78.3146C183.17 78.3146 182.134 78.5993 181.377 79.1685C180.634 79.7228 180.263 80.4869 180.263 81.4607C180.263 82.4494 180.634 83.2285 181.377 83.7978C182.12 84.3521 183.156 84.6292 184.484 84.6292Z" fill="#363636"/>
<path d="M201.042 77.618C201.985 77.9476 202.706 78.4419 203.206 79.1011C203.721 79.7603 203.978 80.5543 203.978 81.4831C203.978 82.397 203.742 83.1985 203.271 83.8876C202.799 84.5618 202.121 85.0861 201.235 85.4607C200.364 85.8202 199.335 86 198.149 86C196.349 86 194.935 85.5955 193.906 84.7865C192.878 83.9775 192.364 82.8764 192.364 81.4831C192.364 80.5393 192.606 79.7453 193.092 79.1011C193.592 78.4419 194.314 77.9476 195.256 77.618C194.485 77.3034 193.899 76.8539 193.499 76.2697C193.099 75.6704 192.899 74.9663 192.899 74.1573C192.899 72.8839 193.371 71.8727 194.314 71.1236C195.271 70.3745 196.549 70 198.149 70C199.206 70 200.128 70.1723 200.914 70.5169C201.714 70.8464 202.335 71.3258 202.778 71.9551C203.221 72.5843 203.442 73.3184 203.442 74.1573C203.442 74.9663 203.235 75.6704 202.821 76.2697C202.406 76.8539 201.814 77.3034 201.042 77.618ZM194.442 74.2022C194.442 75.0712 194.771 75.7603 195.428 76.2697C196.085 76.779 196.992 77.0337 198.149 77.0337C199.306 77.0337 200.214 76.779 200.871 76.2697C201.542 75.7603 201.878 75.0787 201.878 74.2247C201.878 73.3408 201.535 72.6442 200.849 72.1348C200.178 71.6255 199.278 71.3708 198.149 71.3708C197.006 71.3708 196.099 71.6255 195.428 72.1348C194.771 72.6442 194.442 73.3333 194.442 74.2022ZM198.149 84.6292C199.478 84.6292 200.514 84.3446 201.256 83.7753C202.014 83.206 202.392 82.4345 202.392 81.4607C202.392 80.4869 202.014 79.7228 201.256 79.1685C200.514 78.5993 199.478 78.3146 198.149 78.3146C196.835 78.3146 195.799 78.5993 195.042 79.1685C194.299 79.7228 193.928 80.4869 193.928 81.4607C193.928 82.4494 194.299 83.2285 195.042 83.7978C195.785 84.3521 196.821 84.6292 198.149 84.6292Z" fill="#363636"/>
<path d="M0 77.6716H70.1299" stroke="black"/>
<path d="M229.87 77.6716H300" stroke="black"/>
</g>
<defs>
<clipPath id="clip0_5_232">
<rect width="300" height="86" fill="white"/>
</clipPath>
</defs>
</svg>
